<?xml version="1.0" encoding="UTF-8"?>
<svg version="1.1" xmlns="http://www.w3.org/2000/svg" width="355" height="356">
<path d="M0 0 C117.15 0 234.3 0 355 0 C355 117.48 355 234.96 355 356 C237.85 356 120.7 356 0 356 C0 238.52 0 121.04 0 0 Z " fill="#2D59C7" transform="translate(0,0)"/>
<path d="M0 0 C1.65 1.65 3.3 3.3 5 5 C7.42482332 5.73760679 7.42482332 5.73760679 10.00508118 5.63923645 C10.98799637 5.65452393 11.97091156 5.6698114 12.98361206 5.68556213 C14.58367599 5.67262367 14.58367599 5.67262367 16.21606445 5.65942383 C17.34820877 5.66990753 18.48035309 5.68039124 19.64680481 5.69119263 C23.38590797 5.71997516 27.124087 5.7136468 30.86328125 5.70703125 C33.45689557 5.72014422 36.05049968 5.7354472 38.64408875 5.75285339 C44.77095893 5.78868433 50.89751375 5.80244053 57.02447623 5.8054778 C64.6863495 5.81063067 72.34800314 5.84959063 80.00976562 5.88867188 C93.6732398 5.95821772 107.33619494 5.976701 121 6 C121 43.29 121 80.58 121 119 C137.40074219 118.96519531 153.80148438 118.93039063 170.69921875 118.89453125 C181.0670587 118.87920921 191.43489048 118.86464388 201.80273438 118.85351562 C207.24764023 118.84762454 212.69254586 118.84158046 218.13745117 118.83520508 C218.8198896 118.83441383 219.50232804 118.83362259 220.20544642 118.83280736 C231.22561221 118.81975632 242.24573108 118.79610316 253.26586904 118.76854161 C264.57392292 118.74049567 275.88195335 118.72405004 287.19004375 118.71773452 C293.54230242 118.71381823 299.89445468 118.70459246 306.24667931 118.68280983 C312.22280343 118.66248249 318.19877707 118.65615864 324.17493248 118.66067696 C326.3707562 118.65985008 328.56658482 118.65386223 330.76237869 118.64238358 C333.75609383 118.62749839 336.74923785 118.63103206 339.7429657 118.63923645 C340.6155377 118.63049793 341.48810971 118.6217594 342.38712329 118.61275607 C347.04317519 118.64733992 350.27587965 118.87465489 354 122 C366.43873877 159.31621631 355 200.66525426 355 240 C237.85 240 120.7 240 0 240 C0 160.8 0 81.6 0 0 Z " fill="#00AFEF" transform="translate(0,116)"/>
<path d="M0 0 C37.29 0 74.58 0 113 0 C113 37.29 113 74.58 113 113 C75.71 113 38.42 113 0 113 C0 75.71 0 38.42 0 0 Z " fill="#000000" transform="translate(121,122)"/>
<path d="M0 0 C1.98 0 3.96 0 6 0 C4.35830472 2.02054804 2.69088222 4.02043058 1 6 C0.67 6 0.34 6 0 6 C0 4.02 0 2.04 0 0 Z " fill="#144582" transform="translate(0,0)"/>
</svg>
